<svg width="161" height="161" viewBox="0 0 161 161" fill="none" xmlns="http://www.w3.org/2000/svg">
<mask id="mask0_5506_80519" style="mask-type:alpha" maskUnits="userSpaceOnUse" x="0" y="0" width="161" height="161">
<rect x="0.21875" y="0.448242" width="160" height="160" fill="#D9D9D9"/>
</mask>
<g mask="url(#mask0_5506_80519)">
<path fill-rule="evenodd" clip-rule="evenodd" d="M87.9436 13.6561L108.964 23.8696L130.338 34.2583C132.036 35.1314 134.01 36.828 135.771 39.0693C137.419 41.1651 138.562 43.3296 139.068 45.1203L144.326 68.5375L149.532 91.726C149.898 93.5904 149.804 96.1628 149.169 98.9033C148.535 101.639 147.49 103.984 146.343 105.497L131.452 124.036L116.592 142.535C115.364 143.992 113.282 145.537 110.722 146.757C108.138 147.987 105.604 148.634 103.692 148.656L80.0343 148.574L56.0252 148.489C54.1426 148.391 51.7131 147.712 49.2451 146.488C46.7268 145.241 44.6821 143.682 43.4734 142.216L28.793 123.672L14.2524 105.307C13.0388 103.804 11.9201 101.347 11.2594 98.4646C10.6638 95.8631 10.5549 93.4151 10.8618 91.5805L16.3126 68.0836L21.6546 45.0557C22.1078 43.1897 23.3308 40.8468 25.148 38.5919C26.8526 36.4784 28.7439 34.8578 30.3959 33.973L51.9913 23.6681L73.0837 13.6029L73.1808 13.6037C74.9202 12.7623 77.5628 12.2302 80.5192 12.2404C83.4766 12.2517 86.1144 12.8013 87.8473 13.6558L87.9436 13.6561ZM80.2202 34.3883L99.1635 43.5117L118.107 52.634L122.786 73.133L127.465 93.6316L114.355 110.07L101.246 126.507H80.22H59.1949L46.0852 110.07L32.9763 93.6316L37.6553 73.133L42.334 52.634L61.2769 43.5117L80.2202 34.3883Z" fill="url(#paint0_linear_5506_80519)"/>
<path fill-rule="evenodd" clip-rule="evenodd" d="M54.532 97.0904H54.5312V66.9772V66.9758H54.532L79.9711 54.3824V54.3816H79.9721H79.973V54.3824L105.412 66.9758H105.413V66.9772V97.0904H105.412L79.973 109.683H79.9721H79.9711L54.532 97.0904Z" fill="#FEFEFE"/>
<path fill-rule="evenodd" clip-rule="evenodd" d="M101.099 67.3989L79.9743 77.7079V77.7089H79.9733H79.9723V77.7079L58.8477 67.3989L79.9723 57.0902V57.0884H79.9733H79.9743V57.0902L101.099 67.3989Z" fill="#6464FF"/>
<path fill-rule="evenodd" clip-rule="evenodd" d="M56.9492 69.3669L78.5499 79.9775V105.886L56.9492 95.277V69.3669Z" fill="#6464FF"/>
<path fill-rule="evenodd" clip-rule="evenodd" d="M102.995 69.3669L81.3945 79.9775V105.886L102.995 95.277V69.3669Z" fill="#6464FF"/>
</g>
<defs>
<linearGradient id="paint0_linear_5506_80519" x1="58.2112" y1="107.495" x2="102.242" y2="53.391" gradientUnits="userSpaceOnUse">
<stop stop-color="#0044FF"/>
<stop offset="0.490196" stop-color="#CF3868"/>
<stop offset="1" stop-color="#CC0018"/>
</linearGradient>
</defs>
</svg>
